<svg xmlns="http://www.w3.org/2000/svg" xmlns:xlink="http://www.w3.org/1999/xlink" width="120" height="120" version="1.1" viewBox="0 0 120 120"><title>eospayout.com</title><desc>Created with Sketch.</desc><g id="eospayout.com" fill="none" fill-rule="evenodd" stroke="none" stroke-width="1"><rect id="pokereos.io" width="120" height="120" x="0" y="0" fill="#1E3464"/><g transform="translate(-3.000000, -6.000000)"><rect id="Rectangle" width="126" height="126" x="0" y="0" fill="#1D223D"/><g id="Group" stroke="#FFF" stroke-width="2"><g transform="translate(8.000000, 33.000000) translate(0.000000, 35.583333)"><rect id="Rectangle" width="39.032" height="4.74" x="0" y="10.316" fill="#1D223D"/><ellipse id="Oval" cx="19.516" cy="15.056" fill="#FFF" rx="19.516" ry="9.481"/><ellipse id="Oval" cx="19.516" cy="10.316" fill="#9A00E8" rx="19.516" ry="9.481"/></g><g transform="translate(8.000000, 33.000000) translate(41.084615, 36.430556)"><rect id="Rectangle" width="39.032" height="4.74" x=".42" y="9.66" fill="#1D223D"/><ellipse id="Oval" cx="19.937" cy="14.401" fill="#FFF" rx="19.516" ry="9.481"/><ellipse id="Oval" cx="19.937" cy="9.66" fill="#C38AFF" rx="19.516" ry="9.481"/></g><g transform="translate(8.000000, 33.000000) translate(69.592308, 31.347222)"><rect id="Rectangle" width="39.032" height="4.74" x=".376" y="9.916" fill="#1D223D"/><ellipse id="Oval" cx="19.892" cy="14.657" fill="#FFF" rx="19.516" ry="9.481"/><ellipse id="Oval" cx="19.892" cy="9.916" fill="#C260A6" rx="19.516" ry="9.481"/></g><g transform="translate(8.000000, 33.000000) translate(17.607692, 26.263889)"><rect id="Rectangle" width="39.032" height="4.74" x=".584" y="10.259" fill="#1D223D"/><ellipse id="Oval" cx="20.1" cy="14.999" fill="#FFF" rx="19.516" ry="9.481"/><ellipse id="Oval" cx="20.1" cy="10.259" fill="#164FFF" rx="19.516" ry="9.481"/></g><g transform="translate(8.000000, 33.000000) translate(57.853846, 19.486111)"><rect id="Rectangle" width="39.032" height="4.74" x=".016" y="9.803" fill="#1D223D"/><ellipse id="Oval" cx="19.532" cy="14.544" fill="#FFF" rx="19.516" ry="9.481"/><ellipse id="Oval" cx="19.532" cy="9.803" fill="#FC00FE" rx="19.516" ry="9.481"/></g><g transform="translate(8.000000, 33.000000) translate(36.892308, 12.708333)"><rect id="Rectangle" width="39.032" height="4.74" x=".816" y="9.593" fill="#1D223D"/><ellipse id="Oval" cx="20.332" cy="14.333" fill="#FFF" rx="19.516" ry="9.481"/><ellipse id="Oval" cx="20.332" cy="9.593" fill="#00D004" rx="19.516" ry="9.481"/></g><g transform="translate(8.000000, 33.000000) translate(50.307692, 0.000000)"><rect id="Rectangle" width="39.032" height="4.74" x=".143" y="10.168" fill="#1D223D"/><ellipse id="Oval" cx="19.66" cy="14.909" fill="#FFF" rx="19.516" ry="9.481"/><ellipse id="Oval" cx="19.66" cy="10.168" fill="#FFA317" rx="19.516" ry="9.481"/></g></g></g></g></svg>