<svg xmlns="http://www.w3.org/2000/svg" xmlns:xlink="http://www.w3.org/1999/xlink" width="200" height="200" preserveAspectRatio="xMidYMid meet" version="1.1" viewBox="0 0 200 200"><defs><path id="b4V8nTuzkS" d="M100.5 194.25C48.76 194.25 6.75 152.24 6.75 100.5C6.75 48.76 48.76 6.75 100.5 6.75C152.24 6.75 194.25 48.76 194.25 100.5C194.25 152.24 152.24 194.25 100.5 194.25Z"/><path id="e2M9xOmU60" d="M100 187.5C51.71 187.5 12.5 148.29 12.5 100C12.5 51.71 51.71 12.5 100 12.5C148.29 12.5 187.5 51.71 187.5 100C187.5 148.29 148.29 187.5 100 187.5Z"/><path id="bfhm4GZ74" d="M100.5 185C53.87 185 16 147.13 16 100.5C16 53.87 53.87 16 100.5 16C147.13 16 185 53.87 185 100.5C185 147.13 147.13 185 100.5 185Z"/><path id="a1Gc6tswK" d="M177.19 138L23.04 138"/><path id="aBvo8jOKq" d="M99.99 90C91.72 90 85 83.28 85 75C85 66.72 91.72 60 99.99 60C108.28 60 115 66.72 115 75C115 83.28 108.28 90 99.99 90Z"/><path id="bFj2NSSL" d="M158.92 163L108.25 163"/><path id="bceVrooGd" d="M165 156.75L131 156.75"/><path id="d4lDdCZwBO" d="M77.42 145.17L27.42 145.17"/><path id="dy0QZ12mm" d="M69.25 151.5L31.75 151.5"/><path id="b3gIOuMpT" d="M125.5 156.75L118.25 156.75"/><path id="e5cd3KTNiv" d="M88 145.17L81.75 145.17"/><path id="d8nHS8QnAP" d="M176.14 139.35C160.74 139.31 37.56 138.98 22.16 138.94C46.47 172.63 73.99 188.4 104.74 186.24C135.49 184.09 159.29 168.46 176.14 139.35Z"/><path id="aNkBE9sQ" d="M150 143.75L150 150L50 150L50 143.75L150 143.75Z"/><path id="cbVEwt3g1" d="M143.75 156.25L143.75 162.5L56.25 162.5L56.25 156.25L143.75 156.25Z"/><path id="ga9VjeeBi" d="M125 168.75L125 175L75 175L75 168.75L125 168.75Z"/></defs><g><g><g><use fill="#f96e5b" fill-opacity="1" opacity="1" xlink:href="#b4V8nTuzkS"/><g><use fill-opacity="0" stroke="#000" stroke-opacity="0" stroke-width="1" opacity="1" xlink:href="#b4V8nTuzkS"/></g></g><g><use fill="#f96e5b" fill-opacity="1" opacity="1" xlink:href="#e2M9xOmU60"/><g><use fill-opacity="0" stroke="#000" stroke-opacity="0" stroke-width="1" opacity="1" xlink:href="#e2M9xOmU60"/></g></g><g><use fill="#000" fill-opacity="0" opacity="1" xlink:href="#bfhm4GZ74"/><g><use fill-opacity="0" stroke="#fff" stroke-opacity="1" stroke-width="10" opacity="1" xlink:href="#bfhm4GZ74"/></g></g><g><use fill="#000" fill-opacity="0" opacity="1" xlink:href="#a1Gc6tswK"/><g><use fill-opacity="0" stroke="#fff" stroke-opacity="1" stroke-width="4" opacity="1" xlink:href="#a1Gc6tswK"/></g></g><g><use fill="#000" fill-opacity="0" opacity="1" xlink:href="#aBvo8jOKq"/><g><use fill-opacity="0" stroke="#fff" stroke-opacity="1" stroke-width="6" opacity="1" xlink:href="#aBvo8jOKq"/></g></g><g><use fill="#000" fill-opacity="0" opacity="1" xlink:href="#bFj2NSSL"/><g><use fill-opacity="0" stroke="#fff" stroke-opacity="1" stroke-width="3" opacity="1" xlink:href="#bFj2NSSL"/></g></g><g><use fill="#000" fill-opacity="0" opacity="1" xlink:href="#bceVrooGd"/><g><use fill-opacity="0" stroke="#fff" stroke-opacity="1" stroke-width="3" opacity="1" xlink:href="#bceVrooGd"/></g></g><g><use fill="#000" fill-opacity="0" opacity="1" xlink:href="#d4lDdCZwBO"/><g><use fill-opacity="0" stroke="#fff" stroke-opacity="1" stroke-width="3" opacity="1" xlink:href="#d4lDdCZwBO"/></g></g><g><use fill="#000" fill-opacity="0" opacity="1" xlink:href="#dy0QZ12mm"/><g><use fill-opacity="0" stroke="#fff" stroke-opacity="1" stroke-width="3" opacity="1" xlink:href="#dy0QZ12mm"/></g></g><g><use fill="#000" fill-opacity="0" opacity="1" xlink:href="#b3gIOuMpT"/><g><use fill-opacity="0" stroke="#fff" stroke-opacity="1" stroke-width="3" opacity="1" xlink:href="#b3gIOuMpT"/></g></g><g><use fill="#000" fill-opacity="0" opacity="1" xlink:href="#e5cd3KTNiv"/><g><use fill-opacity="0" stroke="#fff" stroke-opacity="1" stroke-width="3" opacity="1" xlink:href="#e5cd3KTNiv"/></g></g><g><use fill="#fff" fill-opacity="1" opacity="1" xlink:href="#d8nHS8QnAP"/><g><use fill-opacity="0" stroke="#000" stroke-opacity="0" stroke-width="1" opacity="1" xlink:href="#d8nHS8QnAP"/></g></g><g><use fill="#f96e5b" fill-opacity="1" opacity="1" xlink:href="#aNkBE9sQ"/><g><use fill-opacity="0" stroke="#000" stroke-opacity="0" stroke-width="1" opacity="1" xlink:href="#aNkBE9sQ"/></g></g><g><use fill="#f96e5b" fill-opacity="1" opacity="1" xlink:href="#cbVEwt3g1"/><g><use fill-opacity="0" stroke="#000" stroke-opacity="0" stroke-width="1" opacity="1" xlink:href="#cbVEwt3g1"/></g></g><g><use fill="#f96e5b" fill-opacity="1" opacity="1" xlink:href="#ga9VjeeBi"/><g><use fill-opacity="0" stroke="#000" stroke-opacity="0" stroke-width="1" opacity="1" xlink:href="#ga9VjeeBi"/></g></g></g></g></svg>